<?xml version="1.0" encoding="UTF-8"?>
<svg xmlns="http://www.w3.org/2000/svg" viewBox="0 0 256 256">
  <!-- วงกลมพื้นหลัง ฟ้าไล่ทอง -->
  <defs>
    <linearGradient id="bg" x1="0" y1="0" x2="0" y2="1">
      <stop offset="0%" stop-color="#0f7bdc"/>
      <stop offset="60%" stop-color="#35b3ff"/>
      <stop offset="100%" stop-color="#f5c949"/>
    </linearGradient>
    <linearGradient id="roof" x1="0" y1="0" x2="1" y2="0">
      <stop offset="0%" stop-color="#b22222"/>
      <stop offset="100%" stop-color="#ff5b3a"/>
    </linearGradient>
  </defs>

  <circle cx="128" cy="128" r="124" fill="url(#bg)"/>

  <!-- แท่นฐาน -->
  <rect x="60" y="170" width="136" height="22" rx="6" fill="#f9f3e4"/>
  <rect x="72" y="160" width="112" height="14" rx="5" fill="#f0e2c4"/>

  <!-- อุโบสถด้านหน้า (หลังคาแดง) -->
  <polygon points="64,150 128,92 192,150" fill="url(#roof)" />
  <rect x="80" y="150" width="96" height="38" rx="6" fill="#ffffff"/>
  <!-- เสา -->
  <rect x="86" y="152" width="10" height="34" fill="#f5f0e5"/>
  <rect x="118" y="152" width="10" height="34" fill="#f5f0e5"/>
  <rect x="150" y="152" width="10" height="34" fill="#f5f0e5"/>

  <!-- พระธาตุเจดีย์ด้านหลัง -->
  <path d="M122 150 L134 150 L146 112 L132 88 L118 112 Z" fill="#ffffff"/>
  <rect x="122" y="78" width="12" height="18" fill="#ffffff"/>
  <rect x="124" y="62" width="8" height="14" fill="#ffffff"/>
  <rect x="126" y="50" width="4" height="12" fill="#f5d46b"/>

  <!-- แถบทองหน้าบัน -->
  <polygon points="108,138 128,118 148,138" fill="#f2cf63"/>

  <!-- เงาด้านล่างเล็กน้อย -->
  <ellipse cx="128" cy="196" rx="80" ry="10" fill="rgba(0,0,0,0.10)"/>
</svg>
